{
  "accessors": [
    {
      "bufferView": 1,
      "componentType": 5126,
      "count": 1238,
      "max": [
        59.83028030395508,
        60.0,
        61.778255462646484
      ],
      "min": [
        -47.021976470947266,
        -10.0,
        -65.79998016357422
      ],
      "type": "VEC3"
    },
    {
      "bufferView": 1,
      "byteOffset": 14856,
      "componentType": 5126,
      "count": 1238,
      "max": [
        0.9999985694885254,
        1.0,
        1.0
      ],
      "min": [
        -0.9999633431434631,
        -1.0,
        -0.9999896287918091
      ],
      "type": "VEC3"
    },
    {
      "bufferView": 2,
      "componentType": 5126,
      "count": 1238,
      "max": [
        0.6117647290229797,
        0.6117647290229797,
        0.6117647290229797,
        1.0
      ],
      "min": [
        0.6117647290229797,
        0.6117647290229797,
        0.6117647290229797,
        1.0
      ],
      "type": "VEC4"
    },
    {
      "bufferView": 0,
      "componentType": 5125,
      "count": 3624,
      "type": "SCALAR"
    }
  ],
  "asset": {
    "extras": {
      "author": "Choparra (https://sketchfab.com/Choparra)",
      "license": "CC-BY-4.0 (http://creativecommons.org/licenses/by/4.0/)",
      "source": "https://sketchfab.com/3d-models/codo-perro-mecanismo-v3-3e980fd4624146af9daa21def3f324b8",
      "title": "Codo Perro Mecanismo V3"
    },
    "generator": "Sketchfab-16.8.0",
    "version": "2.0"
  },
  "bufferViews": [
    {
      "buffer": 0,
      "byteLength": 14496,
      "name": "floatBufferViews",
      "target": 34963
    },
    {
      "buffer": 0,
      "byteLength": 29712,
      "byteOffset": 14496,
      "byteStride": 12,
      "name": "floatBufferViews",
      "target": 34962
    },
    {
      "buffer": 0,
      "byteLength": 19808,
      "byteOffset": 44208,
      "byteStride": 16,
      "name": "floatBufferViews",
      "target": 34962
    }
  ],
  "buffers": [
    {
      "byteLength": 64016,
      "uri": "scene.bin"
    }
  ],
  "materials": [
    {
      "doubleSided": true,
      "name": "Scene_-_Root",
      "pbrMetallicRoughness": {
        "metallicFactor": 0.0,
        "roughnessFactor": 0.6
      }
    }
  ],
  "meshes": [
    {
      "name": "Object_0",
      "primitives": [
        {
          "attributes": {
            "COLOR_0": 2,
            "NORMAL": 1,
            "POSITION": 0
          },
          "indices": 3,
          "material": 0,
          "mode": 4
        }
      ]
    }
  ],
  "nodes": [
    {
      "children": [
        1
      ],
      "matrix": [
        0.9275638461112976,
        -0.029103603214025414,
        -0.3725295960903168,
        0.0,
        -0.3734242916107178,
        -0.10795722156763056,
        -0.9213574528694153,
        0.0,
        -0.013402437791228294,
        0.9937294721603394,
        -0.1110052019357679,
        0.0,
        0.0,
        0.0,
        0.0,
        1.0
      ],
      "name": "Sketchfab_model"
    },
    {
      "children": [
        2
      ],
      "name": "eb7c64e352304d5697ebdfa82648ecf3.stl.cleaner.materialmerger.gles"
    },
    {
      "mesh": 0,
      "name": "Object_2"
    }
  ],
  "scene": 0,
  "scenes": [
    {
      "name": "Sketchfab_Scene",
      "nodes": [
        0
      ]
    }
  ]
}
